<!DOCTYPE svg PUBLIC "-//W3C//DTD SVG 1.1//EN" "http://www.w3.org/Graphics/SVG/1.1/DTD/svg11.dtd">
<!-- Uploaded to: SVG Repo, www.svgrepo.com, Transformed by: SVG Repo Mixer Tools -->
<svg fill="#D4AF37" height="800px" width="800px" version="1.1" id="Layer_1" xmlns="http://www.w3.org/2000/svg" xmlns:xlink="http://www.w3.org/1999/xlink" viewBox="0 0 491.52 491.52" xml:space="preserve" stroke="#D4AF37">
<g id="SVGRepo_bgCarrier" stroke-width="0"/>
<g id="SVGRepo_tracerCarrier" stroke-linecap="round" stroke-linejoin="round"/>
<g id="SVGRepo_iconCarrier"> <g> <g> <path d="M410.9,192.2C409.45,85.97,321.71,0,214.06,0C105.52,0,17.21,87.42,17.26,193.89c-0.27,2.78-6.07,68.89,41.09,136.09 c20.27,28.9,33.38,56.54,40.08,84.5c4.55,18.95,7.85,51.35,7.85,77.04h20.48c0-27.09-3.54-61.5-8.41-81.82 c-7.32-30.51-21.46-60.43-43.24-91.48c-42.62-60.74-37.52-121.76-37.42-123.34c0-96.16,79.12-174.4,176.37-174.4 c97.26,0,176.38,78.24,176.38,174.4v2.65l49.42,89.19H395.8v92.16h-81.92v112.64h20.48v-92.16h81.92V307.2h58.34L410.9,192.2z"/> </g> </g> <g> <g> <path d="M283.16,143.36v-20.48h-20.48V92.16H242.2v30.72h-20.48V92.16h-20.48v30.72h-20.48V92.16h-20.48v30.72H139.8v20.48h-30.72 v20.48h30.72v20.48h-30.72v20.48h30.72v20.48h-30.72v20.48h30.72v20.48h20.48v30.72h20.48v-30.72h20.48v30.72h20.48v-30.72h20.48 v30.72h20.48v-30.72h20.48v-20.48h30.72v-20.48h-30.72V204.8h30.72v-20.48h-30.72v-20.48h30.72v0v-20.48H283.16z M262.68,245.76 h-102.4v-102.4h102.4V245.76z"/> </g> </g> </g>
</svg>